HIERARCHY
ROOT Hips
{
	OFFSET 0.000000 0.000000 0.000000
	CHANNELS 6 Xposition Yposition Zposition Zrotation Yrotation Xrotation 
	JOINT LHipJoint
	{
		OFFSET 0.000000 0.000000 0.000000
		CHANNELS 3 Zrotation Yrotation Xrotation
		JOINT LeftUpLeg
		{
			OFFSET 1.363060 -1.794630 0.839290
			CHANNELS 3 Zrotation Yrotation Xrotation
			JOINT LeftLeg
			{
				OFFSET 2.448110 -6.726130 0.000000
				CHANNELS 3 Zrotation Yrotation Xrotation
				JOINT LeftFoot
				{
					OFFSET 2.562200 -7.039590 0.000000
					CHANNELS 3 Zrotation Yrotation Xrotation
					JOINT LeftToeBase
					{
						OFFSET 0.157640 -0.433110 2.322550
						CHANNELS 3 Zrotation Yrotation Xrotation
						End Site
						{
							OFFSET 0.000000 0.000000 0.000000
						}
					}
				}
			}
		}
	}
	JOINT RHipJoint
	{
		OFFSET 0.000000 0.000000 0.000000
		CHANNELS 3 Zrotation Yrotation Xrotation
		JOINT RightUpLeg
		{
			OFFSET -1.305520 -1.794630 0.839290
			CHANNELS 3 Zrotation Yrotation Xrotation
			JOINT RightLeg
			{
				OFFSET -2.542530 -6.985550 0.000000
				CHANNELS 3 Zrotation Yrotation Xrotation
				JOINT RightFoot
				{
					OFFSET -2.568260 -7.056230 0.000000
					CHANNELS 3 Zrotation Yrotation Xrotation
					JOINT RightToeBase
					{
						OFFSET -0.164730 -0.452590 2.363150
						CHANNELS 3 Zrotation Yrotation Xrotation
						End Site
						{
							OFFSET 0.000000 0.000000 0.000000
						}
					}
				}
			}
		}
	}
	JOINT LowerBack
	{
		OFFSET 0.000000 0.000000 0.000000
		CHANNELS 3 Zrotation Yrotation Xrotation
		JOINT Spine
		{
			OFFSET 0.028270 2.035590 -0.193380
			CHANNELS 3 Zrotation Yrotation Xrotation
			JOINT Spine1
			{
				OFFSET 0.056720 2.048850 -0.042750
				CHANNELS 3 Zrotation Yrotation Xrotation
				JOINT Neck
				{
					OFFSET 0.000000 0.000000 0.000000
					CHANNELS 3 Zrotation Yrotation Xrotation
					JOINT Neck1
					{
						OFFSET -0.054170 1.746240 0.172020
						CHANNELS 3 Zrotation Yrotation Xrotation
						JOINT Head
						{
							OFFSET 0.104070 1.761360 -0.123970
							CHANNELS 3 Zrotation Yrotation Xrotation
							End Site
							{
								OFFSET 0.000000 0.000000 0.000000
							}
						}
					}
				}
				JOINT LeftShoulder
				{
					OFFSET 0.000000 0.000000 0.000000
					CHANNELS 3 Zrotation Yrotation Xrotation
					JOINT LeftArm
					{
						OFFSET 3.362410 1.200890 -0.311210
						CHANNELS 3 Zrotation Yrotation Xrotation
						JOINT LeftForeArm
						{
							OFFSET 4.983000 -0.000000 -0.000000
							CHANNELS 3 Zrotation Yrotation Xrotation
							JOINT LeftHand
							{
								OFFSET 3.483560 -0.000000 -0.000000
								CHANNELS 3 Zrotation Yrotation Xrotation
								JOINT LeftFingerBase
								{
									OFFSET 0.000000 0.000000 0.000000
									CHANNELS 3 Zrotation Yrotation Xrotation
									JOINT LeftHandIndex1
									{
										OFFSET 0.715260 -0.000000 -0.000000
										CHANNELS 3 Zrotation Yrotation Xrotation
										End Site
										{
											OFFSET 0.000000 0.000000 0.000000
										}
									}
								}
								JOINT LThumb
								{
									OFFSET 0.000000 0.000000 0.000000
									CHANNELS 3 Zrotation Yrotation Xrotation
									End Site
									{
										OFFSET 0.000000 0.000000 0.000000
									}
								}
							}
						}
					}
				}
				JOINT RightShoulder
				{
					OFFSET 0.000000 0.000000 0.000000
					CHANNELS 3 Zrotation Yrotation Xrotation
					JOINT RightArm
					{
						OFFSET -3.136600 1.374050 -0.404650
						CHANNELS 3 Zrotation Yrotation Xrotation
						JOINT RightForeArm
						{
							OFFSET -5.241900 -0.000000 -0.000000
							CHANNELS 3 Zrotation Yrotation Xrotation
							JOINT RightHand
							{
								OFFSET -3.444170 -0.000000 -0.000000
								CHANNELS 3 Zrotation Yrotation Xrotation
								JOINT RightFingerBase
								{
									OFFSET 0.000000 0.000000 0.000000
									CHANNELS 3 Zrotation Yrotation Xrotation
									JOINT RightHandIndex1
									{
										OFFSET -0.622530 -0.000000 -0.000000
										CHANNELS 3 Zrotation Yrotation Xrotation
										End Site
										{
											OFFSET 0.000000 0.000000 0.000000
										}
									}
								}
								JOINT RThumb
								{
									OFFSET 0.000000 0.000000 0.000000
									CHANNELS 3 Zrotation Yrotation Xrotation
									End Site
									{
										OFFSET 0.000000 0.000000 0.000000
									}
								}
							}
						}
					}
				}
			}
		}
	}
}
MOTION
Frames: 9
Frame Time: 0.008333
1.301368 17.998603 0.179084 12.072304 84.624733 26.968959 -3.591491 0.170354 1.507271 -16.540332 2.733419 -19.249910 1.102030 5.158165 15.365815 0.402712 0.274038 -0.431720 2.079700 -9.030100 -25.889600 -3.216250 -3.087337 0.148109 18.235339 3.336918 -8.915473 -0.803554 0.485555 1.182834 -0.516956 6.128242 4.909520 -0.241100 3.159900 -8.724100 0.581186 -0.174636 -11.995819 -9.039695 -1.942212 -2.999111 0.586566 -0.481086 4.384021 -12.171223 -20.843211 -7.816966 20.440634 -25.782336 -3.563578 3.156800 -12.982900 4.802100 -0.326299 -6.230895 2.467918 -32.780226 30.232072 88.161676 106.185331 -55.341265 -72.962126 2.917739 -0.606601 9.770979 23.359621 5.059566 1.962700 -7.125000 0.000000 0.000000 -5.264600 35.582400 1.222500 4.446556 7.357317 0.215315 1.899082 10.380566 -52.941560 -44.549995 52.951952 -15.171450 -1.381293 -2.813733 -34.434734 -36.143683 6.417383 -5.705100 7.125000 0.000000 0.000000 -4.686000 -19.613100 -2.850700 
1.298163 17.999380 0.183260 11.526364 84.552325 26.397491 -3.590808 0.175549 1.501824 -16.487969 2.757711 -19.219175 1.099352 5.164413 15.364483 0.393544 0.319897 -0.486467 2.051900 -8.973400 -25.712300 -3.219855 -3.074406 0.132197 18.285619 3.402313 -8.858025 -0.803764 0.487495 1.184449 -0.517518 6.129414 4.890862 -0.247800 3.203000 -8.844500 0.603063 -0.189036 -11.900255 -8.979517 -1.960681 -3.133862 0.587451 -0.488491 4.318603 -12.197853 -20.816689 -7.962032 20.311522 -25.769542 -3.359843 3.119700 -12.950800 4.853700 -0.362007 -6.207309 2.543545 -31.876753 28.979042 87.794392 107.368985 -55.171756 -74.068270 2.766184 -0.616765 9.694011 21.439409 5.034232 1.778700 -7.125000 0.000000 0.000000 -6.734900 35.494700 1.581900 4.463419 7.333592 0.196075 1.801667 10.780633 -53.099967 -44.340511 52.846305 -15.052248 -1.385709 -2.786546 -34.011136 -35.989181 6.433378 -5.677000 7.125000 0.000000 0.000000 -4.592300 -19.627300 -2.791800 
1.294861 17.999768 0.186368 11.397924 84.467345 26.248160 -3.588857 0.177162 1.496522 -16.485760 2.792689 -19.193202 1.097195 5.164061 15.353454 0.378905 0.384721 -0.443145 2.030000 -8.928300 -25.571400 -3.220640 -3.066145 0.122638 18.275112 3.472483 -8.820379 -0.803743 0.487139 1.185355 -0.516817 6.116495 4.877538 -0.247200 3.199200 -8.833700 0.619110 -0.214995 -11.831319 -8.967851 -1.997475 -3.234592 0.589257 -0.505145 4.276792 -12.219780 -20.762436 -8.066558 20.265989 -25.699808 -3.285420 3.115200 -12.904400 4.877200 -0.397193 -6.188077 2.615878 -30.987508 27.676444 87.215076 108.786958 -54.948677 -75.398862 2.575406 -0.614660 9.747458 19.053884 5.169720 1.598800 -7.125000 0.000000 0.000000 -8.570300 35.538000 2.011000 4.484685 7.309437 0.176291 1.698034 11.136844 -53.100931 -44.147549 52.743709 -14.945868 -1.391181 -2.766404 -33.759273 -35.889752 6.452451 -5.660600 7.125000 0.000000 0.000000 -4.530500 -19.632700 -2.753500 
1.287383 18.000254 0.192777 11.120947 84.455459 25.999940 -3.587150 0.178197 1.486624 -16.432963 2.793505 -19.220719 1.092622 5.157334 15.323112 0.368792 0.428847 -0.378885 2.056500 -8.982800 -25.741500 -3.224766 -3.060327 0.112163 18.339010 3.509483 -8.851570 -0.803870 0.487185 1.186626 -0.514689 6.084348 4.886545 -0.246900 3.197400 -8.828900 0.614225 -0.272948 -11.776156 -8.932278 -2.075533 -3.390551 0.608199 -0.541317 4.243965 -12.161797 -20.689833 -8.123077 20.157946 -25.619667 -3.245029 3.098400 -12.859800 4.871600 -0.437269 -6.182373 2.689991 -30.175048 26.242349 86.578125 110.067517 -54.726741 -76.601379 2.420685 -0.591087 9.739821 17.106224 5.470207 1.491800 -7.125000 0.000000 0.000000 -10.090700 35.745200 2.324600 4.503272 7.287560 0.161295 1.596214 11.477659 -53.042978 -43.956734 52.640479 -14.842346 -1.390802 -2.760802 -33.613458 -35.799947 6.320579 -5.554300 7.125000 0.000000 0.000000 -4.486200 -19.805300 -2.709000 
1.280197 17.999865 0.198799 11.351265 84.469029 26.256350 -3.585998 0.173712 1.473182 -16.439736 2.797517 -19.243661 1.090276 5.153144 15.305931 0.359986 0.470212 -0.379368 2.105300 -9.082100 -26.052400 -3.226604 -3.057790 0.101162 18.354104 3.505035 -8.886671 -0.803601 0.485402 1.186621 -0.512926 6.056774 4.889314 -0.246300 3.193500 -8.817800 0.626730 -0.318362 -11.715822 -8.994361 -2.148837 -3.572057 0.604672 -0.571925 4.211195 -12.127769 -20.621361 -8.105394 20.147403 -25.532674 -3.277090 3.113100 -12.820600 4.852300 -0.464719 -6.184403 2.762056 -29.344203 24.708586 85.864516 111.304921 -54.495650 -77.765790 2.294101 -0.574118 9.722943 15.496747 5.709002 1.389300 -7.125000 0.000000 0.000000 -11.349300 35.903700 2.578900 4.521801 7.274512 0.152205 1.596572 11.763927 -52.984724 -43.851051 52.580789 -14.798610 -1.401885 -2.751729 -33.509361 -35.907783 6.272933 -5.540100 7.125000 0.000000 0.000000 -4.567400 -19.860900 -2.752700 
1.279711 17.998409 0.200547 10.968232 84.340060 25.831316 -3.586621 0.179781 1.473913 -16.441634 2.808159 -19.177136 1.087954 5.156828 15.302170 0.324871 0.627357 -0.495053 2.118300 -9.108200 -26.134400 -3.227776 -3.047319 0.093652 18.343142 3.610659 -8.812531 -0.803751 0.486373 1.187804 -0.510902 6.031373 4.899884 -0.245000 3.185500 -8.795500 0.700976 -0.323561 -11.742845 -9.027087 -2.168873 -3.623442 0.559715 -0.580555 4.227870 -12.108109 -20.552266 -8.202814 20.054650 -25.448228 -3.239937 3.097600 -12.773200 4.854900 -0.496543 -6.187607 2.822497 -28.690395 23.141975 84.975000 112.415899 -54.270163 -78.813628 2.214673 -0.551716 9.436572 14.429592 5.963102 1.335800 -7.125000 0.000000 0.000000 -12.203100 36.101800 2.719800 4.538918 7.263733 0.138070 1.586811 12.108667 -52.946270 -43.726594 52.505931 -14.735729 -1.407398 -2.738123 -33.389484 -35.883983 6.282670 -5.534200 7.125000 0.000000 0.000000 -4.554700 -19.866700 -2.744400 
1.279031 18.000545 0.200352 10.447954 84.228098 25.255169 -3.588177 0.190181 1.482742 -16.423922 2.846364 -19.112700 1.085924 5.161848 15.301579 0.302353 0.727463 -0.560983 2.119400 -9.110500 -26.141700 -3.229745 -3.036790 0.090263 18.344380 3.702285 -8.737597 -0.804464 0.489179 1.189277 -0.511379 6.040418 4.913759 -0.237700 3.137600 -8.662000 0.854306 -0.297750 -11.789292 -9.131137 -2.161064 -3.600323 0.469314 -0.574063 4.266065 -12.052102 -20.474160 -8.251087 20.089676 -25.324312 -3.392592 3.121200 -12.725700 4.815700 -0.518658 -6.202436 2.874212 -28.049019 21.378952 84.045172 113.433814 -54.046683 -79.772808 2.179380 -0.521047 8.939093 13.846708 6.288166 1.339700 -7.125000 0.000000 0.000000 -12.707100 36.388600 2.745600 4.552806 7.261186 0.127449 1.613701 12.369212 -52.946500 -43.599499 52.415558 -14.664406 -1.417173 -2.721017 -33.189263 -35.885068 6.343985 -5.567200 7.125000 0.000000 0.000000 -4.554600 -19.808000 -2.750300 
1.273884 18.001225 0.202975 10.897886 84.181770 25.661816 -3.589127 0.188260 1.485839 -16.502953 2.971078 -19.076121 1.084837 5.156221 15.286902 0.317332 0.665683 -0.576700 2.117300 -9.106200 -26.128100 -3.228105 -3.035877 0.089623 18.286169 3.720167 -8.704223 -0.804750 0.488281 1.188728 -0.512333 6.058001 4.922812 -0.226300 3.061900 -8.451200 0.876088 -0.329738 -11.797465 -9.251768 -2.215606 -3.610918 0.457028 -0.600971 4.276994 -11.933935 -20.378646 -8.362692 20.043163 -25.191207 -3.487882 3.118900 -12.665400 4.782700 -0.542718 -6.223412 2.925181 -27.570139 19.629710 82.928320 114.398531 -53.822899 -80.677531 2.144270 -0.466576 8.686846 13.213347 6.891221 1.378900 -7.125000 0.000000 0.000000 -13.301900 36.913000 2.705000 4.570182 7.253693 0.119975 1.587654 12.652325 -52.978622 -43.423659 52.300598 -14.559205 -1.416609 -2.701442 -32.880878 -35.703344 6.362991 -5.537800 7.125000 0.000000 0.000000 -4.438000 -19.816600 -2.678600 
1.268154 18.002002 0.206665 10.709409 84.109764 25.447357 -3.589404 0.192046 1.487616 -16.519105 3.114372 -19.059943 1.081091 5.152492 15.265382 0.333066 0.602479 -0.616964 2.101400 -9.074200 -26.027600 -3.231454 -3.027779 0.081478 18.284785 3.781921 -8.675660 -0.804918 0.488983 1.189193 -0.507916 6.007143 4.980956 -0.199700 2.877500 -7.937900 0.880830 -0.366684 -11.793530 -9.271581 -2.267139 -3.676205 0.457358 -0.628861 4.267383 -11.901567 -20.325562 -8.515143 19.987216 -25.120951 -3.438523 3.103900 -12.619500 4.798600 -0.577805 -6.239310 2.972962 -27.324762 17.851936 81.701442 115.169569 -53.631980 -81.404080 2.136872 -0.414470 8.110827 12.944807 7.407923 1.439000 -7.125000 0.000000 0.000000 -13.609400 37.381500 2.610400 4.588936 7.254094 0.115646 1.503443 12.985546 -52.927229 -43.173157 52.148575 -14.413780 -1.439735 -2.656818 -32.503554 -35.667341 6.678344 -5.712000 7.125000 0.000000 0.000000 -4.392500 -19.488100 -2.683300 
